<svg width="104" height="33" viewBox="0 0 104 33" fill="none" xmlns="http://www.w3.org/2000/svg">
<path d="M68.7578 4.76563V9.97945H68.3055C66.824 9.98103 65.3888 10.4963 64.2444 11.4375C63.0999 12.3787 62.3169 13.6877 62.0287 15.1416C61.9463 15.5526 61.9048 15.9708 61.905 16.3901V28.2694H55.582V4.76563H61.4379V8.09929C61.5767 7.84709 61.7315 7.60403 61.9013 7.37161C62.497 6.56298 63.2744 5.9058 64.1707 5.45311C65.067 5.00043 66.0572 4.76493 67.0613 4.76563H68.7578Z" fill="#054AD9"/>
<path d="M48.1513 9.97279V20.574C48.1513 21.2301 48.4117 21.8593 48.8752 22.3234C49.3388 22.7874 49.9675 23.0484 50.6233 23.0489H52.0153V28.2627H48.0701C46.3997 28.2189 44.8125 27.5243 43.6466 26.3268C42.4806 25.1293 41.8282 23.5237 41.8283 21.8521V9.97279H38.6641V4.75897H41.8283V0.5H48.1513V4.74789H52.0153V9.97279H48.1513Z" fill="#054AD9"/>
<path d="M97.1994 5.92582C96.1961 5.38408 95.1198 4.99031 94.0038 4.75673C92.368 4.41442 90.6791 4.41442 89.0433 4.75673C86.6323 5.26202 84.4353 6.49732 82.7504 8.29491C81.0654 10.0925 79.9743 12.3653 79.6251 14.8047C79.2759 17.2441 79.6856 19.7319 80.7984 21.9303C81.9113 24.1288 83.6735 25.9313 85.8458 27.0932C86.8495 27.6336 87.9258 28.0267 89.0414 28.2605C90.6772 28.6028 92.3661 28.6028 94.0019 28.2605C95.1185 28.0277 96.1954 27.6345 97.1994 27.0932C99.1136 26.0677 100.714 24.5417 101.829 22.678C102.945 20.8143 103.534 18.6827 103.534 16.5105C103.534 14.3382 102.945 12.2066 101.829 10.3429C100.714 8.47919 99.1136 6.95324 97.1994 5.92767V5.92582ZM97.1994 17.746C96.8811 19.1993 96.0179 20.4751 94.7877 21.3109C93.5575 22.1468 92.0539 22.479 90.5862 22.2393C89.1185 21.9996 87.7986 21.2062 86.898 20.0223C85.9974 18.8384 85.5847 17.3542 85.7448 15.8752C85.9049 14.3961 86.6257 13.0347 87.7588 12.0712C88.8919 11.1077 90.351 10.6154 91.836 10.6956C93.3209 10.7758 94.7186 11.4225 95.7414 12.5024C96.7641 13.5824 97.3342 15.0135 97.3342 16.5012C97.3347 16.9223 97.2896 17.3421 97.1994 17.7534V17.746Z" fill="#054AD9"/>
<path d="M71.1523 4.76562V28.2694H77.4809V15.3595L75.5812 13.459L74.9757 12.8532L72.1031 9.97944H77.4624V4.76562H71.1523Z" fill="#054AD9"/>
<path d="M15.9913 0.517608L0 16.5156L5.99966 22.5178L21.9909 6.5198L15.9913 0.517608Z" fill="#054AD9"/>
<path d="M15.9971 20.5082L10 26.5078L15.9905 32.5009L21.9876 26.5013L15.9971 20.5082Z" fill="#054AD9"/>
<path d="M25.9853 10.5239L19.9883 16.5234L25.9788 22.5165L31.9759 16.5169L25.9853 10.5239Z" fill="#054AD9"/>
</svg>
